<svg data-v-423bf9ae="" xmlns="http://www.w3.org/2000/svg" viewBox="0 0 412.4480843180115 163" class="iconAbove"><!----><!----><!----><g data-v-423bf9ae="" id="daa55fea-deff-40c1-86f7-16cdffcd6164" fill="#2B1200" transform="matrix(3.7759596415120917,0,0,3.7759596415120917,-3.171803703316783,100.88546551237823)"><path d="M0.84 1.05L0.84 12.60L5.22 12.60C7.62 12.60 9.00 11.28 9.00 9.38C9.00 7.52 7.98 6.72 6.54 6.47C7.52 5.96 7.98 5.05 7.98 3.99C7.98 1.79 6.41 1.05 4.42 1.05ZM3.47 5.57L3.47 3.08L3.68 3.08C4.83 3.08 5.43 3.43 5.43 4.26C5.43 5.22 4.82 5.57 3.68 5.57ZM3.47 10.57L3.47 7.84L4.30 7.84C5.54 7.84 6.23 8.22 6.23 9.28C6.23 10.19 5.54 10.57 4.30 10.57ZM9.65 9.02C9.65 11.12 11.12 12.81 13.22 12.81C14.20 12.81 15.04 12.38 15.57 11.79L15.60 11.79L15.60 12.60L18.05 12.60L18.05 5.42L15.57 5.42L15.57 6.10C14.98 5.53 14.18 5.21 13.22 5.21C11.12 5.21 9.65 6.92 9.65 9.02ZM12.28 9.02C12.28 8.02 13.02 7.32 13.96 7.32C14.88 7.32 15.62 8.02 15.62 9.02C15.62 10.00 14.92 10.70 13.96 10.70C12.95 10.70 12.28 10.00 12.28 9.02ZM19.73 12.60L22.20 12.60L22.20 8.82C22.20 8.64 22.39 7.36 23.67 7.36C24.50 7.36 24.96 7.76 24.96 7.76L26.00 5.66C26.00 5.66 25.35 5.21 24.43 5.21C23.02 5.21 22.23 6.45 22.23 6.45L22.20 6.45L22.20 5.42L19.73 5.42ZM35.10 9.02C35.10 6.92 33.63 5.21 31.53 5.21C30.56 5.21 29.76 5.53 29.18 6.10L29.18 0.56L26.70 0.56L26.70 12.60L29.15 12.60L29.15 11.79L29.18 11.79C29.71 12.38 30.55 12.81 31.53 12.81C33.63 12.81 35.10 11.12 35.10 9.02ZM32.47 9.02C32.47 10.00 31.79 10.70 30.79 10.70C29.82 10.70 29.12 10.00 29.12 9.02C29.12 8.02 29.86 7.32 30.79 7.32C31.72 7.32 32.47 8.02 32.47 9.02ZM35.74 9.02C35.74 11.12 37.21 12.81 39.31 12.81C40.29 12.81 41.13 12.38 41.66 11.79L41.69 11.79L41.69 12.60L44.14 12.60L44.14 5.42L41.66 5.42L41.66 6.10C41.08 5.53 40.28 5.21 39.31 5.21C37.21 5.21 35.74 6.92 35.74 9.02ZM38.37 9.02C38.37 8.02 39.12 7.32 40.05 7.32C40.98 7.32 41.72 8.02 41.72 9.02C41.72 10.00 41.02 10.70 40.05 10.70C39.05 10.70 38.37 10.00 38.37 9.02ZM47.01 0.84C46.38 0.84 45.82 1.34 45.82 1.89L45.82 1.95C45.82 2.59 46.41 5.95 46.41 5.95L47.35 5.95C47.35 5.95 48.22 2.59 48.22 1.95L48.22 1.89C48.22 1.34 47.66 0.84 47.01 0.84ZM52.21 5.21C50.32 5.21 49.07 6.05 49.07 7.52C49.07 8.60 49.80 9.10 50.53 9.48C51.34 9.90 52.12 9.94 52.12 10.46C52.12 10.93 51.70 10.98 51.35 10.98C50.55 10.98 49.57 10.15 49.57 10.15L48.57 11.84C48.57 11.84 49.60 12.81 51.34 12.81C52.81 12.81 54.74 12.47 54.74 10.36C54.74 8.89 53.51 8.36 52.56 8.06C51.94 7.87 51.44 7.76 51.44 7.38C51.44 7.04 51.66 6.94 52.21 6.94C52.96 6.94 53.80 7.39 53.80 7.39L54.61 5.77C54.61 5.77 53.59 5.21 52.21 5.21ZM65.49 10.22C62.85 10.22 61.68 8.37 61.68 6.82C61.68 5.28 62.85 3.43 65.49 3.43C66.84 3.43 67.76 4.14 67.76 4.14L68.88 1.90C68.88 1.90 67.59 0.84 65.09 0.84C61.81 0.84 58.83 3.53 58.83 6.85C58.83 10.15 61.82 12.81 65.09 12.81C67.59 12.81 68.88 11.75 68.88 11.75L67.76 9.51C67.76 9.51 66.84 10.22 65.49 10.22ZM69.37 9.02C69.37 11.23 71.11 12.81 73.70 12.81C76.17 12.81 77.98 11.23 77.98 9.02C77.98 6.78 76.08 5.21 73.70 5.21C71.27 5.21 69.37 6.78 69.37 9.02ZM72.00 9.02C72.00 8.02 72.74 7.32 73.68 7.32C74.61 7.32 75.35 8.02 75.35 9.02C75.35 10.00 74.65 10.70 73.68 10.70C72.67 10.70 72.00 10.00 72.00 9.02ZM78.62 9.02C78.62 11.12 80.09 12.81 82.19 12.81C83.17 12.81 84.01 12.38 84.55 11.79L84.57 11.79L84.57 12.60L87.02 12.60L87.02 0.56L84.55 0.56L84.55 6.10C83.96 5.53 83.16 5.21 82.19 5.21C80.09 5.21 78.62 6.92 78.62 9.02ZM81.26 9.02C81.26 8.02 82.00 7.32 82.94 7.32C83.86 7.32 84.60 8.02 84.60 9.02C84.60 10.00 83.90 10.70 82.94 10.70C81.93 10.70 81.26 10.00 81.26 9.02ZM89.98 0.98C89.17 0.98 88.51 1.64 88.51 2.45C88.51 3.26 89.17 3.92 89.98 3.92C90.79 3.92 91.45 3.26 91.45 2.45C91.45 1.64 90.79 0.98 89.98 0.98ZM88.70 5.42L91.18 5.42L91.18 12.60L88.70 12.60ZM92.93 12.60L95.41 12.60L95.41 8.54C95.41 7.83 96.14 7.14 96.88 7.14C97.68 7.14 98.17 7.83 98.17 8.54L98.17 12.60L100.65 12.60L100.65 7.87C100.65 5.87 98.81 5.21 97.50 5.21C96.71 5.21 96.00 5.61 95.44 6.17L95.41 6.17L95.41 5.42L92.93 5.42ZM101.86 14.36C102.62 16.11 104.34 16.45 105.84 16.45C108.29 16.45 110.07 15.20 110.07 12.80L110.07 5.42L107.59 5.42L107.59 6.06L107.55 6.06C106.96 5.52 106.19 5.21 105.24 5.21C103.14 5.21 101.67 6.92 101.67 9.02C101.67 11.12 103.14 12.81 105.24 12.81C106.22 12.81 107.06 12.67 107.59 12.08L107.59 12.61C107.59 13.89 106.53 14.29 105.84 14.29C104.76 14.29 104.16 13.80 103.89 13.37ZM104.30 9.02C104.30 8.02 105.04 7.32 105.98 7.32C106.90 7.32 107.65 8.02 107.65 9.02C107.65 10.00 106.95 10.70 105.98 10.70C104.97 10.70 104.30 10.00 104.30 9.02Z"></path></g><!----><g data-v-423bf9ae="" id="08fdcc3a-dcc3-49f5-b174-1339c38925b6" transform="matrix(1.1836340058781953,0,0,1.1836340058781953,148.00747385815765,-16.612925484420472)" stroke="none" fill="#f32323"><path clip-rule="evenodd" d="M98.268 14.229c1.127 6.534-.395 12.284-.635 17.58-.086 1.871.329 3.884 0 5.719-.109.607-.536 1.007-.848 1.695-.265.585-.383 1.362-.635 1.906-.285.612-.609 1.118-.848 1.694-.482 1.168-.692 2.464-1.06 4.024-.146.629-.49 1.271-.635 1.907-.334 1.458-.396 2.905-.848 4.024-.221.548-.506.968-.848 1.482-.686 1.034-1.893 2.603-2.753 3.812-.415.583-1.065 1.093-1.271 1.694-.169.497-.134 1.372-.212 1.906-.104.724-.126 1.356-.211 1.907-.188 1.195-.219 2.509-.636 3.601-.238.624-.725 1.03-1.271 1.694-1.047 1.271-2.217 2.621-3.389 4.024-.974 1.164-2.001 3.466-2.754 5.083a70.29 70.29 0 0 0-1.906 4.448c-1.149.803-2.49 1.859-3.813 2.965-.468.391-.824.543-1.481 1.06-.302.236-.433.55-.636.635-.375.156-1.096.091-1.695.212-2.248.456-5.189 1.131-7.837 1.694-1.081.23-2.266.617-3.177.636-1.878.039-3.786-.678-5.507-.847-1.106.518-2.195 1.052-3.389 1.482-.783-.559-1.659-1.024-2.542-1.482-1.977.16-3.952 1.059-6.143 1.059-1.877 0-4.106-.803-6.354-1.271-2.305-.479-4.804-.621-6.354-1.271-.908-.381-1.499-1.085-2.33-1.694-.286-.21-.635-.257-.847-.424-.249-.193-.388-.65-.636-.847-.28-.222-.587-.219-.847-.424-.48-.376-.864-.966-1.483-1.059-.554-1.561-1.221-2.987-1.906-4.449-.665-1.417-1.306-2.951-2.119-4.235-1.477-2.335-3.822-4.192-5.507-6.566-.083-1.771-.584-3.789-.847-5.507-.093-.609-.031-1.365-.212-1.906-.154-.462-.315-.381-.635-.848-.207-.301-.211-.764-.424-1.059-.116-.162-.293-.228-.423-.424-.132-.199-.402-.495-.636-.848-.132-.198-.402-.495-.635-.847-.158-.238-.542-.856-.848-1.271-.766-1.042-1.064-1.081-1.482-2.755-.391-1.564-1.033-4.039-1.482-5.93-.182-.765-.186-1.61-.424-2.33-.423-1.28-1.442-2.822-2.118-4.236-.635-1.33-.745-3.245-.847-5.507-.059-1.292.069-2.564 0-3.813-.133-2.402-.688-4.848-.847-7.413-.166-2.677.158-5.3.212-8.261 1.641 3.776 2.779 7.881 4.236 12.073.183.528.414 1.225.635 1.695.715 1.518 2.003 2.75 2.965 4.024 1.002 1.328 1.81 2.746 2.965 3.812 1.229.183 2.465.358 3.812.423-.062 1.898.375 3.297.212 5.295.876.89 2.303 1.227 3.601 1.694.804 3.079 1.974 5.792 2.753 8.896 2.078-.817 4.268-1.521 6.143-2.542 1.593 3.067 2.93 6.391 4.448 9.531 1.471-.648 3.278-.958 4.66-1.694 1.108.516 1.708 1.54 2.754 2.118 2.14-2.125 4.371-4.021 7.202-6.143.16-.12.74-.437 1.271-.847 1.337-1.036.901-1.294 2.754 0 .256.178.418.489.635.635.99.663 1.87 1.385 2.966 2.118 1.535 1.028 2.996 2.628 4.236 4.024 1.199-.424 1.595-1.653 2.753-2.118 1.619.429 3.042 1.053 4.66 1.482 1.611-2.907 2.935-6.103 4.236-9.319 2.173.651 3.893 1.756 6.143 2.329 1.216-2.666 1.854-5.912 2.966-8.683 1.09-.534 2.298-.949 3.389-1.483.008-1.898.355-3.457.212-5.507 1.229-.183 2.465-.358 3.812-.423.735-.422 1-1.253 1.483-1.906.77-1.042 1.682-2.052 2.542-3.177.125-.164.073-.451.211-.636.444-.595 1.156-1.065 1.483-1.694.276-.531.382-1.212.635-1.906 1.381-3.771 2.851-8.354 4.238-12.49z"></path><path clip-rule="evenodd" d="M50.398 25.667c1.782-.767 2.976-2.069 4.872-2.33 1.353-.186 3.021.152 4.448.424 3.232.615 5.703 1.991 8.261 3.601.29.183.995.803 1.059.847 1.237.864 2.977 2.524 4.024 3.812.182.224.301.326.505.583.134.167.444.515.555.688.365.575.898 1.896 1.271 2.753.482 1.113 1.296 3.206 1.482 4.872.338 3.025-.557 6.095-.212 9.532-1.477-.558-2.624-.9-3.812-1.907-2.015-1.706-.801-6.353-2.966-8.26-.318-.281-.485-.453-.95-.756a9.393 9.393 0 0 0-.532-.303c-.436-.196-1.714-.937-2.329-1.059-1.887-.375-4.48.193-6.779.424-2.229.224-4.687.819-6.565.423-1.12-.236-1.685-.994-2.542-1.695-1.45 2.253-5.669 1.422-9.107 1.059-2.342-.247-4.68-.763-6.566-.423-1.368.247-4.168 1.963-4.872 3.389-.909 1.844-.264 4.036-1.271 5.931-.432.813-.699.896-1.483 1.483-.665.497-1.895.947-2.965 1.694-.051-3.322-.659-6.736-.212-10.379.115-.935.548-2.326 1.059-3.601.219-.545.566-.89.847-1.482.568-1.194.846-1.924 1.694-2.965 1.034-1.266 2.308-2.77 3.813-3.812.076-.053.78-.817.847-.847.108-.049 1.898-1.026 2.33-1.271 2.123-1.206 4.71-2.373 8.049-2.754 1.058-.121 2.124-.389 3.177-.211.817.138 1.729.85 2.542 1.271.768.396 1.627.694 2.328 1.269z"></path></g><!----></svg>