<svg data-v-423bf9ae="" xmlns="http://www.w3.org/2000/svg" viewBox="0 0 77.0789811770117 60" class="icon"><!----><!----><!----><!----><g data-v-423bf9ae="" id="266743ff-d121-498d-93b5-c46451658a8f" transform="matrix(0.7890893372521303,0,0,0.7890893372521303,-0.7875953701073257,-11.2279402114561)" stroke="none" fill="black"><path clip-rule="evenodd" d="M98.268 14.229c1.127 6.534-.395 12.284-.635 17.58-.086 1.871.329 3.884 0 5.719-.109.607-.536 1.007-.848 1.695-.265.585-.383 1.362-.635 1.906-.285.612-.609 1.118-.848 1.694-.482 1.168-.692 2.464-1.06 4.024-.146.629-.49 1.271-.635 1.907-.334 1.458-.396 2.905-.848 4.024-.221.548-.506.968-.848 1.482-.686 1.034-1.893 2.603-2.753 3.812-.415.583-1.065 1.093-1.271 1.694-.169.497-.134 1.372-.212 1.906-.104.724-.126 1.356-.211 1.907-.188 1.195-.219 2.509-.636 3.601-.238.624-.725 1.03-1.271 1.694-1.047 1.271-2.217 2.621-3.389 4.024-.974 1.164-2.001 3.466-2.754 5.083a70.29 70.29 0 0 0-1.906 4.448c-1.149.803-2.49 1.859-3.813 2.965-.468.391-.824.543-1.481 1.06-.302.236-.433.55-.636.635-.375.156-1.096.091-1.695.212-2.248.456-5.189 1.131-7.837 1.694-1.081.23-2.266.617-3.177.636-1.878.039-3.786-.678-5.507-.847-1.106.518-2.195 1.052-3.389 1.482-.783-.559-1.659-1.024-2.542-1.482-1.977.16-3.952 1.059-6.143 1.059-1.877 0-4.106-.803-6.354-1.271-2.305-.479-4.804-.621-6.354-1.271-.908-.381-1.499-1.085-2.33-1.694-.286-.21-.635-.257-.847-.424-.249-.193-.388-.65-.636-.847-.28-.222-.587-.219-.847-.424-.48-.376-.864-.966-1.483-1.059-.554-1.561-1.221-2.987-1.906-4.449-.665-1.417-1.306-2.951-2.119-4.235-1.477-2.335-3.822-4.192-5.507-6.566-.083-1.771-.584-3.789-.847-5.507-.093-.609-.031-1.365-.212-1.906-.154-.462-.315-.381-.635-.848-.207-.301-.211-.764-.424-1.059-.116-.162-.293-.228-.423-.424-.132-.199-.402-.495-.636-.848-.132-.198-.402-.495-.635-.847-.158-.238-.542-.856-.848-1.271-.766-1.042-1.064-1.081-1.482-2.755-.391-1.564-1.033-4.039-1.482-5.93-.182-.765-.186-1.61-.424-2.33-.423-1.28-1.442-2.822-2.118-4.236-.635-1.33-.745-3.245-.847-5.507-.059-1.292.069-2.564 0-3.813-.133-2.402-.688-4.848-.847-7.413-.166-2.677.158-5.3.212-8.261 1.641 3.776 2.779 7.881 4.236 12.073.183.528.414 1.225.635 1.695.715 1.518 2.003 2.75 2.965 4.024 1.002 1.328 1.81 2.746 2.965 3.812 1.229.183 2.465.358 3.812.423-.062 1.898.375 3.297.212 5.295.876.89 2.303 1.227 3.601 1.694.804 3.079 1.974 5.792 2.753 8.896 2.078-.817 4.268-1.521 6.143-2.542 1.593 3.067 2.93 6.391 4.448 9.531 1.471-.648 3.278-.958 4.66-1.694 1.108.516 1.708 1.54 2.754 2.118 2.14-2.125 4.371-4.021 7.202-6.143.16-.12.74-.437 1.271-.847 1.337-1.036.901-1.294 2.754 0 .256.178.418.489.635.635.99.663 1.87 1.385 2.966 2.118 1.535 1.028 2.996 2.628 4.236 4.024 1.199-.424 1.595-1.653 2.753-2.118 1.619.429 3.042 1.053 4.66 1.482 1.611-2.907 2.935-6.103 4.236-9.319 2.173.651 3.893 1.756 6.143 2.329 1.216-2.666 1.854-5.912 2.966-8.683 1.09-.534 2.298-.949 3.389-1.483.008-1.898.355-3.457.212-5.507 1.229-.183 2.465-.358 3.812-.423.735-.422 1-1.253 1.483-1.906.77-1.042 1.682-2.052 2.542-3.177.125-.164.073-.451.211-.636.444-.595 1.156-1.065 1.483-1.694.276-.531.382-1.212.635-1.906 1.381-3.771 2.851-8.354 4.238-12.49z"></path><path clip-rule="evenodd" d="M50.398 25.667c1.782-.767 2.976-2.069 4.872-2.33 1.353-.186 3.021.152 4.448.424 3.232.615 5.703 1.991 8.261 3.601.29.183.995.803 1.059.847 1.237.864 2.977 2.524 4.024 3.812.182.224.301.326.505.583.134.167.444.515.555.688.365.575.898 1.896 1.271 2.753.482 1.113 1.296 3.206 1.482 4.872.338 3.025-.557 6.095-.212 9.532-1.477-.558-2.624-.9-3.812-1.907-2.015-1.706-.801-6.353-2.966-8.26-.318-.281-.485-.453-.95-.756a9.393 9.393 0 0 0-.532-.303c-.436-.196-1.714-.937-2.329-1.059-1.887-.375-4.48.193-6.779.424-2.229.224-4.687.819-6.565.423-1.12-.236-1.685-.994-2.542-1.695-1.45 2.253-5.669 1.422-9.107 1.059-2.342-.247-4.68-.763-6.566-.423-1.368.247-4.168 1.963-4.872 3.389-.909 1.844-.264 4.036-1.271 5.931-.432.813-.699.896-1.483 1.483-.665.497-1.895.947-2.965 1.694-.051-3.322-.659-6.736-.212-10.379.115-.935.548-2.326 1.059-3.601.219-.545.566-.89.847-1.482.568-1.194.846-1.924 1.694-2.965 1.034-1.266 2.308-2.77 3.813-3.812.076-.053.78-.817.847-.847.108-.049 1.898-1.026 2.33-1.271 2.123-1.206 4.71-2.373 8.049-2.754 1.058-.121 2.124-.389 3.177-.211.817.138 1.729.85 2.542 1.271.768.396 1.627.694 2.328 1.269z"></path></g><!----></svg>